PathFileType	4	(X/Y/Z)	Walk4.trc
DataRate	CameraRate	NumFrames	NumMarkers	Units	OrigDataRate	OrigDataStartFrame	OrigNumFrames
200.000000	200.000000	5	69	mm	200.000000	763	1013
Frame#	Times		LFHD		LowerBodyModelVer		RCAR		RFHD		RWRU		RACR1		RFA1		RASI		LElbow		LTH3		LTB1		RUA1		LMT1		LACR1		LLFC		LMT5		LTH4		LTH2		LUA1		RTH2		LTB3		LTB2		LTB4		LToe		STRN		RBHD		CLAV		RTH4		RLFC		LLMAL		LASI		PELOrigin		RTH3		LWRU		RBack		LTH1		LFA1		C7		RPSI		LBHD		RMT1		RCAL		RMT5		LPSI		RTH1		RTB2		RToe		LHJC		MidPelvis		OPelvis		RHJC		SACR		XPelvis		YPelvis		ZPelvis		LCAR		RLMAL		LWRR		RWRR		RElbow		RTB1		RTB3		RTB4		RMMAL		LMMAL		T10		RElbowM		LCAL		LElbowM
			X1	Y1	Z1	X2	Y2	Z2	X3	Y3	Z3	X4	Y4	Z4	X5	Y5	Z5	X6	Y6	Z6	X7	Y7	Z7	X8	Y8	Z8	X9	Y9	Z9	X10	Y10	Z10	X11	Y11	Z11	X12	Y12	Z12	X13	Y13	Z13	X14	Y14	Z14	X15	Y15	Z15	X16	Y16	Z16	X17	Y17	Z17	X18	Y18	Z18	X19	Y19	Z19	X20	Y20	Z20	X21	Y21	Z21	X22	Y22	Z22	X23	Y23	Z23	X24	Y24	Z24	X25	Y25	Z25	X26	Y26	Z26	X27	Y27	Z27	X28	Y28	Z28	X29	Y29	Z29	X30	Y30	Z30	X31	Y31	Z31	X32	Y32	Z32	X33	Y33	Z33	X34	Y34	Z34	X35	Y35	Z35	X36	Y36	Z36	X37	Y37	Z37	X38	Y38	Z38	X39	Y39	Z39	X40	Y40	Z40	X41	Y41	Z41	X42	Y42	Z42	X43	Y43	Z43	X44	Y44	Z44	X45	Y45	Z45	X46	Y46	Z46	X47	Y47	Z47	X48	Y48	Z48	X49	Y49	Z49	X50	Y50	Z50	X51	Y51	Z51	X52	Y52	Z52	X53	Y53	Z53	X54	Y54	Z54	X55	Y55	Z55	X56	Y56	Z56	X57	Y57	Z57	X58	Y58	Z58	X59	Y59	Z59	X60	Y60	Z60	X61	Y61	Z61	X62	Y62	Z62	X63	Y63	Z63	X64	Y64	Z64	X65	Y65	Z65	X66	Y66	Z66	X67	Y67	Z67	X68	Y68	Z68	X69	Y69	Z69

763	3.815	-42.094	1569.3	-28.975	9	2014	4	-246.16	772.61	333.71	-44.018	1567.3	68.573	-281.92	831.23	346.48	-192.33	1367.4	185.7	-251.71	936.21	321.92	-100.36	957.57	199.7	-161.58	1059.2	-301.13	-185.11	553.95	-137.49	-230.94	331.58	-19.435	-247.8	1229.1	270.46	-186.35	35.61	-4.0149	-142.19	1345.4	-169.01	-228.38	485.78	-125.3	-201.88	25.292	-94.991	-158.92	632.87	-165.37	-111.18	627.88	-129.61	-135.85	1203.2	-251.23	-43.391	660.24	222.57	-264.73	163.49	-27.227	-247.09	250.95	-86.572	-250.63	248.33	-25.312	-140.59	29.349	-6.0443	-36.435	1211.5	36.962	-214.71	1560.8	73.459	-97.383	1328.2	17.075	-98.681	642.28	238.79	-52.119	471.85	218.03	-316.65	71.477	-87.135	-83.35	953.06	-158.79	-91.854	955.31	20.455	-74.339	559.26	225.29	-38.229	848.24	-340.17	-322.95	1306.2	94.451	-129.34	707.75	-193.37	-63.849	962.8	-310.01	-256.17	1406.9	6.3481	-342.34	964.67	47.452	-192.66	1551.9	-60.362	137.21	72.325	154.23	-45.911	29.858	157.14	111.18	61.694	235.02	-322.54	971.32	-83.732	-114.75	724.44	254.68	-0.92166	293.81	212.48	173.66	83.007	170.5	-174.96	843.55	-104.26	-212.15	961.65	1.1576	-91.854	955.31	20.455	-186.52	846.62	139.51	-332.44	967.99	-18.14	-12.062	951.02	24.295	-87.517	1035.2	19.657	-95.645	956.32	100.36	11.718	815.9	-328.47	-9.3685	76.925	209.61	-5.7811	859.9	-273.6	-234.01	830.48	288.93	-304.99	1069.4	303.14	28.362	374.54	151.16	23.589	190.66	137.47	25.975	282.6	144.31	21.018	91.647	130.1	-309.48	75.941	-2.592	-309.93	1075.9	-2.9804	-330.36	1056	214.17	-375.46	33.896	-47.402	-189.22	1014.7	-206.03
764	3.82	-37.645	1568.6	-28.205	9	2014	4	-242.03	771.86	334.19	-39.627	1566.7	69.34	-277.81	830.46	346.87	-188.04	1366.7	186.3	-247.52	935.44	322.34	-95.495	956.68	199.94	-155.19	1058.9	-300.84	-182.38	553.7	-137.25	-229.28	331.43	-19.313	-243.52	1228.3	271	-186.3	35.653	-4.0916	-137.68	1344.9	-168.32	-225.99	485.77	-125	-201.88	25.237	-95.036	-156.02	632.5	-165.28	-108.09	627.32	-129.78	-130.25	1202.8	-250.44	-39.215	658.95	222.3	-263.98	163.56	-27.284	-245.98	251.01	-86.522	-249.47	248.3	-25.253	-140.55	29.285	-6.0677	-32.01	1211	37.19	-210.33	1560.2	74.093	-93.035	1327.6	17.703	-94.445	641.13	238.87	-47.687	470.77	217.71	-316.48	71.815	-87.185	-79.19	952.69	-158.69	-87.342	954.68	20.622	-70.378	558.1	225.35	-29.696	849.16	-339.16	-318.64	1305.4	95.054	-126.27	707.26	-193.4	-56.581	963.42	-309.1	-251.86	1406.3	6.9443	-337.65	963.72	48.6	-188.19	1551.3	-59.707	152.62	75.752	154.26	-29.453	28.826	158.95	127.6	64.604	235.3	-318.37	970.49	-82.619	-110.21	723.29	254.96	8.8928	294.35	212.52	188.87	87.447	170.04	-170.57	842.95	-104.12	-207.68	960.89	1.8062	-87.342	954.68	20.622	-181.66	845.67	139.75	-328.01	967.1	-17.009	-7.537	950.49	24.297	-83.111	1034.6	19.925	-90.975	955.57	100.53	20.47	817.24	-327.11	6.3793	77.002	210.89	2.1727	861.03	-272.34	-229.84	829.71	289.37	-300.79	1068.7	303.55	35.44	375.47	150.48	35.677	191.37	137.89	35.558	283.42	144.18	35.804	92.241	131.12	-309.19	76.309	-2.5977	-305.63	1075.2	-2.1688	-326.05	1055.3	214.56	-375.37	34.403	-47.44	-183.12	1014.1	-205.97
765	3.825	-33.199	1567.9	-27.4	9	2014	4	-237.84	771.09	334.68	-35.237	1565.9	70.14	-273.62	829.68	347.28	-183.74	1366	186.94	-243.28	934.67	322.78	-90.613	955.79	200.2	-148.8	1058.7	-300.49	-179.65	553.47	-137.02	-227.55	331.28	-19.203	-239.23	1227.6	271.58	-186.25	35.694	-4.1676	-133.21	1344.4	-167.62	-223.58	485.77	-124.7	-201.89	25.182	-95.068	-153.13	632.15	-165.21	-104.99	626.76	-129.99	-124.67	1202.4	-249.59	-35.096	657.58	222.06	-263.21	163.64	-27.345	-244.86	251.07	-86.477	-248.26	248.27	-25.198	-140.51	29.225	-6.0897	-27.566	1210.5	37.389	-205.95	1559.6	74.766	-88.689	1327	18.333	-90.262	639.9	238.98	-43.239	469.66	217.38	-316.29	72.182	-87.222	-75.003	952.34	-158.6	-82.808	954.07	20.796	-66.463	556.85	225.44	-21.25	850.1	-338.11	-314.33	1304.7	95.706	-123.22	706.77	-193.45	-49.373	964.06	-308.13	-247.58	1405.6	7.5818	-332.92	962.76	49.77	-183.72	1550.7	-59.016	167.49	79.211	154.15	-13.504	28.061	160.62	143.46	67.576	235.43	-314.19	969.66	-81.489	-105.72	722.08	255.26	18.526	294.97	212.49	203.52	91.864	169.44	-166.15	842.36	-103.99	-203.18	960.14	2.4684	-82.808	954.07	20.796	-176.77	844.7	139.99	-323.55	966.21	-15.859	-2.9898	949.98	24.308	-78.689	1034	20.208	-86.285	954.83	100.72	29.115	818.57	-325.71	21.65	77.299	212.05	10.032	862.15	-271.04	-225.62	828.92	289.83	-296.54	1067.9	304.01	42.397	376.38	149.7	47.412	192.19	138.2	44.904	284.29	143.95	50.112	93.016	132.01	-308.88	76.699	-2.5972	-301.32	1074.5	-1.3191	-321.7	1054.5	214.99	-375.27	34.956	-47.47	-177.05	1013.6	-205.87
766	3.83	-28.758	1567.2	-26.561	9	2014	4	-233.59	770.31	335.17	-30.851	1565.2	70.973	-269.37	828.89	347.72	-179.43	1365.4	187.59	-238.98	933.88	323.23	-85.714	954.9	200.47	-142.42	1058.5	-300.07	-176.91	553.25	-136.8	-225.78	331.14	-19.104	-234.94	1226.9	272.2	-186.2	35.731	-4.2422	-128.79	1344	-166.88	-221.15	485.78	-124.39	-201.91	25.129	-95.088	-150.23	631.82	-165.14	-101.89	626.22	-130.21	-119.09	1202.1	-248.69	-31.02	656.16	221.86	-262.39	163.74	-27.406	-243.71	251.15	-86.432	-247.02	248.26	-25.144	-140.47	29.17	-6.1111	-23.105	1210	37.566	-201.58	1558.9	75.476	-84.345	1326.4	18.965	-86.115	638.6	239.11	-38.748	468.56	217.04	-316.1	72.578	-87.245	-70.787	952.02	-158.51	-78.251	953.46	20.981	-62.567	555.53	225.54	-12.892	851.06	-337.03	-310.02	1304	96.403	-120.16	706.31	-193.49	-42.227	964.71	-307.11	-243.31	1404.9	8.2597	-328.15	961.8	50.958	-179.26	1550.1	-58.286	181.76	82.647	153.91	1.8785	27.531	162.15	158.73	70.561	235.44	-309.98	968.82	-80.346	-101.27	720.79	255.58	27.965	295.65	212.38	217.57	96.198	168.73	-161.71	841.78	-103.87	-198.66	959.39	3.1435	-78.251	953.46	20.981	-171.86	843.73	140.24	-319.06	965.31	-14.694	1.58	949.48	24.332	-74.249	1033.4	20.506	-81.574	954.1	100.91	37.65	819.91	-324.27	36.385	77.779	213.07	17.794	863.26	-269.7	-221.35	828.13	290.3	-292.24	1067.2	304.51	49.237	377.26	148.84	58.768	193.1	138.4	54.003	285.18	143.62	63.901	93.934	132.78	-308.55	77.112	-2.589	-297	1073.8	-0.43391	-317.32	1053.8	215.47	-375.16	35.553	-47.487	-171.01	1013	-205.73
767	3.835	-24.322	1566.5	-25.69	9	2014	4	-229.27	769.52	335.67	-26.468	1564.5	71.838	-265.06	828.09	348.19	-175.12	1364.7	188.28	-234.61	933.09	323.71	-80.797	954.03	200.77	-136.04	1058.3	-299.6	-174.18	553.05	-136.58	-223.94	331.01	-19.015	-230.62	1226.1	272.86	-186.15	35.765	-4.315	-124.42	1343.5	-166.13	-218.71	485.81	-124.07	-201.94	25.078	-95.095	-147.33	631.5	-165.09	-98.79	625.69	-130.45	-113.53	1201.7	-247.72	-26.97	654.69	221.7	-261.55	163.85	-27.465	-242.54	251.23	-86.387	-245.73	248.26	-25.089	-140.42	29.119	-6.133	-18.63	1209.5	37.73	-197.21	1558.3	76.226	-80.002	1325.8	19.603	-81.989	637.24	239.27	-34.189	467.47	216.7	-315.89	73.003	-87.253	-66.543	951.73	-158.41	-73.67	952.88	21.179	-58.667	554.14	225.66	-4.6234	852.04	-335.92	-305.7	1303.2	97.144	-117.09	705.86	-193.54	-35.148	965.37	-306.03	-239.06	1404.2	8.9776	-323.35	960.85	52.157	-174.81	1549.5	-57.519	195.41	86.006	153.58	16.64	27.202	163.52	173.33	73.51	235.33	-305.74	967.99	-79.193	-96.859	719.44	255.91	37.193	296.36	212.18	231	100.39	167.94	-157.23	841.21	-103.74	-194.11	958.65	3.8307	-73.67	952.88	21.179	-166.92	842.77	140.5	-314.54	964.42	-13.518	6.1729	949.02	24.372	-69.792	1032.8	20.823	-76.842	953.39	101.11	46.076	821.24	-322.8	50.53	78.4	213.95	25.459	864.36	-268.32	-217.03	827.33	290.79	-287.89	1066.4	305.06	55.962	378.08	147.91	69.722	194.05	138.49	62.842	286.07	143.2	77.131	94.954	133.42	-308.2	77.546	-2.5719	-292.67	1073	0.48413	-312.92	1053	215.99	-375.05	36.196	-47.49	-165.01	1012.5	-205.54
